# Blender v2.79 (sub 0) OBJ File: 'lamp.blend'
# www.blender.org
mtllib lamp.mtl
v -0.000000 0.000000 -0.154035
v 0.000000 3.000000 -0.308070
v 0.133398 0.000000 -0.077017
v 0.266796 3.000000 -0.154035
v 0.133398 0.000000 0.077017
v 0.266796 3.000000 0.154035
v -0.000000 0.000000 0.154035
v -0.000000 3.000000 0.308070
v -0.133398 0.000000 0.077017
v -0.266796 3.000000 0.154035
v -0.133398 0.000000 -0.077017
v -0.266796 3.000000 -0.154035
v -0.000000 0.274329 -0.077017
v 0.066699 0.274329 -0.038509
v 0.066699 0.274329 0.038509
v -0.000000 0.274329 0.077017
v -0.066699 0.274329 0.038509
v -0.066699 0.274329 -0.038509
v -0.000000 2.883154 -0.077017
v 0.066699 2.883154 -0.038509
v 0.066699 2.883154 0.038509
v -0.000000 2.883154 0.077017
v -0.066699 2.883154 0.038509
v -0.066699 2.883154 -0.038509
v 0.266796 3.105701 -0.154035
v 0.000000 3.105701 -0.308070
v 0.266796 3.105701 0.154035
v -0.000000 3.105701 0.308070
v -0.266796 3.105701 0.154035
v -0.266796 3.105701 -0.154035
vn 0.2521 -0.8635 -0.4367
vn 0.5043 -0.8635 0.0000
vn 0.2521 -0.8636 0.4367
vn -0.2521 -0.8635 0.4367
vn -0.5000 0.0000 0.8660
vn -0.5043 -0.8635 0.0000
vn -0.2521 -0.8635 -0.4367
vn 0.0000 -1.0000 0.0000
vn -0.4858 0.2363 -0.8415
vn -0.9717 0.2363 0.0000
vn -0.4858 0.2363 0.8415
vn 0.4858 0.2363 0.8415
vn 0.9717 0.2363 0.0000
vn 0.4858 0.2363 -0.8415
vn -0.5000 0.0000 -0.8660
vn -1.0000 0.0000 0.0000
vn 0.5000 0.0000 0.8660
vn 1.0000 0.0000 0.0000
vn 0.5000 0.0000 -0.8660
vn 0.0000 1.0000 0.0000
vn 0.2521 -0.8635 0.4367
usemtl Material.001
s off
f 19//1 4//1 20//1
f 4//2 21//2 20//2
f 6//3 22//3 21//3
f 8//4 23//4 22//4
f 8//5 29//5 10//5
f 23//6 12//6 24//6
f 12//7 19//7 24//7
f 7//8 9//8 11//8
f 18//9 1//9 11//9
f 17//10 11//10 9//10
f 16//11 9//11 7//11
f 15//12 7//12 5//12
f 14//13 5//13 3//13
f 13//14 3//14 1//14
f 24//15 13//15 18//15
f 23//16 18//16 17//16
f 22//5 17//5 16//5
f 21//17 16//17 15//17
f 20//18 15//18 14//18
f 19//19 14//19 13//19
f 29//20 28//20 27//20
f 4//18 27//18 6//18
f 10//16 30//16 12//16
f 2//19 25//19 4//19
f 6//17 28//17 8//17
f 12//15 26//15 2//15
f 19//1 2//1 4//1
f 4//2 6//2 21//2
f 6//21 8//21 22//21
f 8//4 10//4 23//4
f 8//5 28//5 29//5
f 23//6 10//6 12//6
f 12//7 2//7 19//7
f 11//8 1//8 3//8
f 3//8 5//8 11//8
f 5//8 7//8 11//8
f 18//9 13//9 1//9
f 17//10 18//10 11//10
f 16//11 17//11 9//11
f 15//12 16//12 7//12
f 14//13 15//13 5//13
f 13//14 14//14 3//14
f 24//15 19//15 13//15
f 23//16 24//16 18//16
f 22//5 23//5 17//5
f 21//17 22//17 16//17
f 20//18 21//18 15//18
f 19//19 20//19 14//19
f 27//20 25//20 29//20
f 25//20 26//20 29//20
f 26//20 30//20 29//20
f 4//18 25//18 27//18
f 10//16 29//16 30//16
f 2//19 26//19 25//19
f 6//17 27//17 28//17
f 12//15 30//15 26//15
